<svg height="626pt" preserveAspectRatio="xMidYMid meet" viewBox="0 0 600 626" width="600pt" xmlns="http://www.w3.org/2000/svg"><g transform="matrix(.05 0 0 -.05 0 626)"><path d="m5320 11777c-1220-85-2392-617-3270-1486-2480-2455-1939-6482 1110-8256 192-111 247-138 520-254 1267-538 2856-537 4060 3 1859 833 3018 2469 3161 4462 71 997-208 2190-694 2959l-50 79-113-109c-63-59-159-134-214-165s-103-59-106-61 39-89 94-192c1815-3400-1128-7427-4937-6754-2731 482-4426 3241-3637 5917 828 2805 4116 4163 6672 2756 81-44 149-77 152-73s29 49 59 101 104 149 165 215l111 120-66 41c-607 375-1499 645-2314 700-336 22-343 22-703-3z"/><path d="m8970 11181c-886-191-1209-1265-571-1901 744-741 1981-179 1914 870-43 671-695 1171-1343 1031z"/><path d="m5350 9161c-1995-286-2939-2659-1673-4207 1550-1896 4610-824 4612 1616 2 1593-1383 2814-2939 2591z"/></g></svg>