 <svg  version="1.0" xmlns="http://www.w3.org/2000/svg"  width="300.000000pt" height="292.000000pt" viewBox="0 0 300.000000 292.000000"  preserveAspectRatio="xMidYMid meet">  <g transform="translate(0.000000,292.000000) scale(0.100000,-0.100000)" fill="#000000" stroke="none"> <path d="M1325 2744 c-200 -29 -327 -65 -458 -130 -370 -187 -631 -535 -702 -939 -23 -132 -21 -349 5 -477 52 -251 170 -475 347 -656 369 -376 924 -493 1410 -297 174 70 316 168 455 313 231 240 358 556 358 886 0 124 -10 201 -42 328 l-21 87 37 41 c50 55 66 97 66 169 0 156 -139 266 -295 233 l-50 -10 -85 83 c-244 238 -533 361 -870 370 -69 2 -138 1 -155 -1z m340 -89 c234 -43 485 -176 654 -349 l54 -55 -26 -38 c-36 -53 -47 -86 -47 -144 0 -137 104 -239 243 -239 l64 0 16 -57 c34 -127 41 -183 41 -328 0 -257 -62 -464 -199 -670 -423 -637 -1312 -738 -1862 -213 -247 237 -383 550 -383 882 0 346 132 654 383 894 284 271 673 387 1062 317z m927 -427 c76 -23 129 -111 114 -190 -29 -156 -239 -187 -314 -47 -45 85 -9 189 82 230 48 22 65 23 118 7z"/> <path d="M1340 2290 c-270 -31 -517 -203 -644 -450 -59 -113 -86 -211 -93 -340 -13 -248 68 -469 237 -640 170 -171 365 -253 605 -253 229 0 436 86 595 245 148 148 231 332 246 545 35 525 -419 953 -946 893z m68 -231 l-3 -144 -85 -7 c-47 -3 -110 -11 -140 -16 -30 -6 -57 -8 -59 -6 -12 12 94 198 139 244 50 51 128 96 143 81 4 -4 6 -72 5 -152z m149 129 c52 -31 122 -117 164 -200 42 -83 49 -114 24 -104 -16 6 -158 24 -220 28 l-40 3 -3 153 -3 154 23 -7 c13 -4 37 -16 55 -27z m-411 -86 c-29 -43 -66 -112 -81 -153 -16 -41 -33 -79 -39 -86 -6 -6 -47 -25 -91 -43 -44 -17 -113 -53 -152 -80 l-73 -49 20 50 c34 91 83 162 175 255 75 75 106 98 184 137 51 26 97 47 101 47 4 0 -16 -35 -44 -78z m639 41 c153 -77 272 -197 354 -360 44 -88 41 -100 -16 -57 -54 41 -146 90 -218 114 -49 16 -50 17 -81 97 -32 83 -93 191 -119 213 -8 7 -15 17 -15 22 0 12 31 2 95 -29z m-375 -478 l0 -175 -181 0 -182 0 7 86 c5 75 12 115 31 201 4 17 16 24 58 32 78 17 166 28 220 30 l47 1 0 -175z m304 150 c39 -8 73 -18 77 -22 12 -12 39 -189 39 -250 l0 -53 -175 0 -175 0 0 176 0 177 83 -7 c45 -4 113 -13 151 -21z m-716 -97 c-5 -23 -12 -83 -16 -133 l-7 -90 -147 -3 c-100 -2 -148 1 -148 8 0 26 45 95 88 136 46 44 216 139 232 129 4 -3 4 -24 -2 -47z m976 13 c45 -22 103 -59 130 -82 50 -44 106 -122 106 -146 0 -10 -33 -13 -149 -13 l-150 0 -6 58 c-3 31 -10 87 -16 124 -11 79 -11 98 -2 98 3 0 43 -18 87 -39z m-1000 -337 c3 -9 6 -37 6 -62 1 -26 7 -81 14 -122 8 -41 12 -77 10 -79 -7 -8 -160 71 -206 106 -53 41 -103 106 -113 146 l-7 27 145 0 c123 0 146 -2 151 -16z m436 -160 l0 -177 -87 7 c-84 6 -221 30 -231 40 -9 10 -31 135 -38 219 l-7 87 182 0 181 0 0 -176z m420 124 c0 -66 -28 -240 -40 -252 -12 -12 -127 -33 -227 -42 l-83 -7 0 177 0 176 175 0 175 0 0 -52z m380 42 c0 -28 -44 -92 -95 -138 -54 -50 -219 -142 -231 -129 -3 3 -1 48 6 99 6 51 13 112 16 136 l5 42 150 0 c96 0 149 -4 149 -10z m-1270 -324 c41 -16 80 -34 86 -40 6 -6 23 -44 39 -85 15 -41 52 -110 81 -153 60 -90 58 -91 -69 -26 -91 48 -209 153 -269 241 -34 50 -98 175 -98 191 0 3 35 -18 78 -47 43 -29 112 -65 152 -81z m1224 102 c-38 -125 -159 -279 -287 -366 -50 -35 -175 -97 -182 -91 -2 2 17 35 42 72 25 37 62 109 82 159 l38 92 51 17 c68 23 206 95 228 120 23 26 37 24 28 -3z m-932 -178 c46 -5 103 -11 128 -12 l45 -3 3 -140 c1 -76 0 -145 -2 -152 -7 -18 -63 5 -116 47 -43 34 -116 139 -149 214 -25 57 -26 70 -6 62 8 -3 52 -10 97 -16z m490 -85 c-56 -115 -143 -206 -220 -230 l-23 -7 3 154 3 153 90 7 c50 4 110 11 135 16 25 4 47 4 49 -1 1 -4 -15 -46 -37 -92z"/> </g> </svg> 